# xmcd
#
# Track frame offsets: 
#        150
#        26914
#        47488
#        69111
#        91198
#        122138
#        144548
#        168305
#        193281
#        213303
#        227763
#        244794
#        259716
#        277406
#        300818
#        318993
#
# Disc length: 4515 seconds
#
# Revision: 0
# Processed by: cddbd v1.5.1PL0 Copyright (c) Steve Scherf et al.
# Submitted via: ExactAudioCopy v0.95b3
#
DISCID=e011a110
DTITLE=Canned Heat - The Boogie House Tapes 1969 - 1999, Vol. 2 [CD
DTITLE=2)
DYEAR=2004
DGENRE=Blues
TTITLE0=Red Headed Woman
TTITLE1=24 Hours
TTITLE2=Turpentine Moan
TTITLE3=Kid Man Blues
TTITLE4=Oh Baby
TTITLE5=JJ Jump
TTITLE6=Sunnyland
TTITLE7=Built For Comfort
TTITLE8=Looking For A Party
TTITLE9=Dizzy Miss Lizzy
TTITLE10=Worried Life Blues
TTITLE11=Nitwit
TTITLE12=Mambo Tango
TTITLE13=Quiet Woman
TTITLE14=Creole Queen
TTITLE15=A Little Time With Me
EXTD=
EXTT0=
EXTT1=
EXTT2=
EXTT3=
EXTT4=
EXTT5=
EXTT6=
EXTT7=
EXTT8=
EXTT9=
EXTT10=
EXTT11=
EXTT12=
EXTT13=
EXTT14=
EXTT15=
PLAYORDER=
